<?xml version="1.0" encoding="utf-8"?>
<!-- Generator: Adobe Illustrator 22.0.0, SVG Export Plug-In . SVG Version: 6.00 Build 0)  -->
<svg version="1.1" id="Layer_1" xmlns="http://www.w3.org/2000/svg" xmlns:xlink="http://www.w3.org/1999/xlink" x="0px" y="0px"
	 viewBox="0 0 170 170" style="enable-background:new 0 0 170 170;" xml:space="preserve">
<style type="text/css">
	.st0{fill:#092E20;}
</style>
<g>
	<g>
		<path class="st0" d="M78.6,32h17.7v82c-9.1,1.7-15.7,2.4-23,2.4c-21.7,0-32.9-9.8-32.9-28.6c0-18,11.9-29.8,30.5-29.8
			c2.9,0,5,0.2,7.7,0.9V32z M78.6,73.3c-2.1-0.7-3.8-0.9-6-0.9c-9,0-14.2,5.5-14.2,15.2c0,9.4,5,14.6,14,14.6c1.9,0,3.6-0.1,6.1-0.4
			L78.6,73.3L78.6,73.3z"/>
		<path class="st0" d="M124.4,59.4v41c0,14.2-1,20.9-4.2,26.8c-2.9,5.6-6.7,9.2-14.5,13.1l-16.5-7.8c7.8-3.7,11.6-6.9,14-11.9
			c2.5-5,3.3-10.9,3.3-26.3V59.4H124.4z M106.7,32.1h17.7v18.2h-17.7V32.1z"/>
	</g>
</g>
</svg>
