<svg xmlns="http://www.w3.org/2000/svg" viewBox="0 0 1076 450"><defs><style>.cls-1{fill:#fff;}.cls-2{fill:none;}</style></defs><title>haystack-local-1076x450</title><g id="Layer_2" data-name="Layer 2"><g id="Layer_1-2" data-name="Layer 1"><path class="cls-1" d="M715.2,337.8a.76.76,0,0,0,0-.15,3.76,3.76,0,0,0-.09-.6s0,0,0-.06a4.61,4.61,0,0,0-.15-.53,1.21,1.21,0,0,1-.05-.14c-.06-.16-.13-.31-.2-.46l0-.08L686.89,281V100.82a10.07,10.07,0,0,0-10-10.06H399.16a10.07,10.07,0,0,0-10.05,10.06V281l-27.77,54.77,0,.08c-.07.15-.14.3-.2.46a.69.69,0,0,1-.05.13,5.44,5.44,0,0,0-.15.54.43.43,0,0,1,0,.05,4.08,4.08,0,0,0-.09.61.76.76,0,0,0,0,.15c0,.11,0,.22,0,.33V350.3c0,6.58,5.36,8.94,11.94,8.94H703.28c6.58,0,11.94-2.36,11.94-8.94V338.13C715.22,338,715.21,337.91,715.2,337.8ZM395.5,101.15h285V281.06h-285Zm-3,186.29h291l23.06,48.49H584.5l-5.72-19.76a9.81,9.81,0,0,0-9.43-7.17h-62.7a9.81,9.81,0,0,0-9.43,7.17l-5.72,19.76H369.43Zm184.24,48.5H499.27l4.84-20.56h67.78Zm133.1,15.36a1.55,1.55,0,0,1-1.55,1.55H367.72a1.55,1.55,0,0,1-1.55-1.55v-9H709.83Z"/><path class="cls-1" d="M666.24,202.76c-2.87,0-3.2,2.32-3.2,5.19V263.6H413V208c0-2.87-.32-5.19-3.19-5.19s-3.19,2.32-3.19,5.19v54.89c0,4.49,2.65,8.14,7.14,8.14H662.29c4.49,0,7.14-3.65,7.14-8.14V208C669.43,205.08,669.1,202.76,666.24,202.76Z"/><path class="cls-1" d="M409.76,179.77c2.87,0,3.2-2.33,3.2-5.2V118.92H663.05v55.65c0,2.87.32,5.2,3.19,5.2s3.19-2.33,3.19-5.2V119.68c0-4.49-2.65-8.14-7.14-8.14H413.71c-4.49,0-7.14,3.65-7.14,8.14v54.89C406.57,177.44,406.9,179.77,409.76,179.77Z"/><path class="cls-1" d="M503.51,159.75l23.64-8.82-.83,14.39-22,4.68a1.21,1.21,0,0,1-1.39-1.09l-.57-7.3A1.84,1.84,0,0,1,503.51,159.75Z"/><path class="cls-1" d="M565.62,170.83v-4.48a1.7,1.7,0,0,0-1-1.56l-33.91-13.86-.83,14.39,34.55,6.58A1.08,1.08,0,0,0,565.62,170.83Z"/><path class="cls-1" d="M498.34,184.94v2.57a1.52,1.52,0,0,0,1.28,1.5l43.21,5.65-1-16.44L500,183.06A1.9,1.9,0,0,0,498.34,184.94Z"/><path class="cls-1" d="M545.39,178.22l1,16.44L574,191.44a1.45,1.45,0,0,0,1.23-1.44l0-6.4a2.08,2.08,0,0,0-1.76-2.08Z"/><path class="cls-1" d="M504.1,204v6.39a3,3,0,0,0,1.54,2.62l22.5,11.37,0-17.13-22.51-4.47A1.24,1.24,0,0,0,504.1,204Z"/><path class="cls-1" d="M531.6,207.21l.06,17.13,33.69-17a3,3,0,0,0,1.6-2.67v-3a1.45,1.45,0,0,0-1.75-1.42Z"/><rect class="cls-2" width="1076" height="450"/></g></g></svg>