<svg xmlns="http://www.w3.org/2000/svg" viewBox="0 0 1076 450"><defs><style>.cls-1{fill:#fff;}.cls-2{fill:none;}</style></defs><title>haystack-cloud-1076x450</title><g id="Layer_2" data-name="Layer 2"><g id="Layer_1-2" data-name="Layer 1"><path class="cls-1" d="M695.13,209.07H665.35a65.52,65.52,0,0,0,.55-7.82c.58-28.36-26.25-53.31-55.63-54C597.9,147,588.65,150,574.7,160c-13.17-41.18-51.06-70.52-96.45-69.9-51.49.7-101.1,43.59-101.1,102.2,0,5.13,1.26,13.83,2,18.76-37.47-.42-64.06,31.91-66.71,64.33-.61,7.57-.46,8.19-.16,16.82,1.12,32.89,26.11,66.67,68.89,67.66h314c39.25,0,68.78-31.05,68.89-67.66V278C763.6,241.14,734.38,209.07,695.13,209.07Zm59.52,83.16c0,31.49-28,59.52-59.52,59.52h-314c-31.49,0-61-25-61.93-59.81-.31-11.12.46-15.29.46-15.29,4.17-33,26.27-55.51,55.3-58.72l12.22-.4-2.08-12.15a90.94,90.94,0,0,1-1.05-13.06c0-50.65,43.65-94.3,94.3-94.3,38.1,0,72.88,23,86.75,58.55l6.61,16.93,12.46-10.44a47.29,47.29,0,0,1,26.21-7.94c24.1,0,47.34,22,47.34,46.13,0,.52,0,1.66-.08,2.18a43.66,43.66,0,0,1-.46,5.08l-1.49,9.73,12.13.2h27.31c31.48,0,59.52,28,59.52,59.52Z"/><path class="cls-1" d="M494,206l31.33-11.7-1.1,19.07L495,219.6a1.6,1.6,0,0,1-1.84-1.45l-.75-9.68A2.43,2.43,0,0,1,494,206Z"/><path class="cls-1" d="M576.06,220.7v-5.94a2.23,2.23,0,0,0-1.39-2.07l-44.95-18.38-1.1,19.07,45.8,8.73A1.43,1.43,0,0,0,576.06,220.7Z"/><path class="cls-1" d="M487.1,239.39v3.41a2,2,0,0,0,1.69,2l57.28,7.49-1.25-21.8-55.57,6.43A2.52,2.52,0,0,0,487.1,239.39Z"/><path class="cls-1" d="M549.26,230.48l1.25,21.8,36.7-4.27a1.94,1.94,0,0,0,1.64-1.9l0-8.49a2.78,2.78,0,0,0-2.34-2.76Z"/><path class="cls-1" d="M494.74,264.6v8.48a4,4,0,0,0,2,3.47l29.83,15.07-.08-22.7L496.69,263A1.63,1.63,0,0,0,494.74,264.6Z"/><path class="cls-1" d="M531,268.92l.08,22.7,44.66-22.48a4,4,0,0,0,2.11-3.54v-3.94a1.91,1.91,0,0,0-2.31-1.88Z"/><rect class="cls-2" width="1076" height="450"/></g></g></svg>