<svg xmlns="http://www.w3.org/2000/svg" viewBox="0 0 920 721"><defs><style>.cls-1{fill:none;}.cls-2{fill:#fff;}</style></defs><title>haystack-pair-white</title><g id="Layer_2" data-name="Layer 2"><g id="Layer_1-2" data-name="Layer 1"><rect class="cls-1" width="920" height="721"/><path class="cls-2" d="M742,351.1,635.3,292.8c36.2-28.4,36.7-86,36.7-88.6V144.9a2,2,0,0,0-.1-.8c-5.1-30.7-39.7-63.6-83-63.6h-.5c-43.1.2-77.4,33-82.5,63.6,0,.3-.1.6-.1.8l-.1,59.3c0,2.5.5,58.9,37,88.5l-82.9,45.2-82.6-45.1c36.2-28.4,36.7-86,36.7-88.6V144.9a2,2,0,0,0-.1-.8c-5.1-30.7-39.7-63.6-83-63.6h-.5c-43.1.2-77.4,33-82.5,63.6,0,.3-.1.6-.1.8l-.1,59.3c0,2.5.5,58.9,37,88.5l-107,58.4a5.18,5.18,0,0,0-2.7,4.6v101a15.41,15.41,0,0,0,15.2,15.6H331.3A133.14,133.14,0,0,0,459.6,640.5a133.21,133.21,0,0,0,128.9-166L729,472.3a15.41,15.41,0,0,0,15.2-15.6v-101A4,4,0,0,0,742,351.1ZM190.6,461.8a5,5,0,0,1-4.8-5.2V358.7l111.5-60.8c.1,0,.1-.1.2-.2a5,5,0,0,0,.8-.7,4.62,4.62,0,0,0,.7-.7l.2-.2c.1-.2.1-.4.2-.6a4.18,4.18,0,0,0,.4-1,2.77,2.77,0,0,0,.1-.9v-1c-.1-.4-.2-.7-.3-1s-.1-.5-.2-.7-.1-.1-.2-.2a5,5,0,0,0-.7-.8l-.7-.7-.2-.2c-38.6-24.6-39.1-84.1-39.1-84.7l.1-58.8c5.6-32.2,42.7-54.5,72.6-54.5h.4c29.9.2,66.6,22.5,72.2,54.5v58.8c0,.6-.5,61.8-38.8,84.7-.1.1-.1.2-.2.2a5,5,0,0,0-.8.7c-.2.3-.5.5-.7.8-.1.1-.2.2-.2.3s-.1.4-.2.6a3.81,3.81,0,0,0-.3,1,3.4,3.4,0,0,0-.1,1,3.75,3.75,0,0,0,.1,1,3,3,0,0,0,.4,1c.1.2.1.4.2.6l.3.3c.1.1.2.3.3.4a5.26,5.26,0,0,0,1.4,1.2h0l111.3,60.6v16.7a127.81,127.81,0,0,0-16.4-1,133,133,0,0,0-125,87.4ZM460,628.5a121,121,0,1,1,121-121A121,121,0,0,1,460,628.5ZM734.3,456.6a5,5,0,0,1-4.8,5.2H585a133.11,133.11,0,0,0-98.2-84.7V355.6a5.29,5.29,0,0,0-2.7-4.6l-13.3-7.2L555,297.9c.1,0,.1-.1.2-.2a5,5,0,0,0,.8-.7,4.62,4.62,0,0,0,.7-.7l.2-.2c.1-.2.1-.4.2-.6a4.18,4.18,0,0,0,.4-1,2.77,2.77,0,0,0,.1-.9v-1c-.1-.4-.2-.7-.3-1s-.1-.5-.2-.7-.1-.1-.2-.2a5,5,0,0,0-.7-.8,4.62,4.62,0,0,0-.7-.7l-.2-.2c-38.6-24.6-39.1-84.1-39.1-84.7l.1-58.8C521.9,113.3,559,91,588.9,91h.4c29.9.2,66.6,22.5,72.2,54.5v58.8c0,.6-.5,61.8-38.8,84.7-.1.1-.1.2-.2.2a5,5,0,0,0-.8.7c-.2.3-.5.5-.7.8-.1.1-.2.2-.2.3s-.1.4-.2.6-.2.7-.3,1a3.4,3.4,0,0,0-.1,1,3.75,3.75,0,0,0,.1,1,3,3,0,0,0,.4,1c.1.2.1.4.2.6l.3.3c.1.1.2.3.3.4a5.26,5.26,0,0,0,1.4,1.2h0l111.4,60.6Z"/><polygon class="cls-2" points="499.1 476.6 527.7 504.2 499.1 531.9 508.7 542.4 548.7 504.2 508.7 466.1 499.1 476.6"/><polygon class="cls-2" points="416.6 466.1 376.5 504.2 416.6 542.4 427 531.9 397.5 504.2 427 476.6 416.6 466.1"/><rect class="cls-2" x="387.87" y="497.54" width="144.9" height="14.3" transform="translate(-196.13 693.58) rotate(-63.69)"/></g></g></svg>