<?xml version="1.0" encoding="utf-8"?>
<!-- Generator: Adobe Illustrator 22.0.0, SVG Export Plug-In . SVG Version: 6.00 Build 0)  -->
<svg version="1.1"
	 id="svg2" inkscape:version="0.47 r22583" sodipodi:docname="logo.svg" xmlns:cc="http://creativecommons.org/ns#" xmlns:dc="http://purl.org/dc/elements/1.1/" xmlns:inkscape="http://www.inkscape.org/namespaces/inkscape" xmlns:rdf="http://www.w3.org/1999/02/22-rdf-syntax-ns#" xmlns:sodipodi="http://sodipodi.sourceforge.net/DTD/sodipodi-0.dtd" xmlns:svg="http://www.w3.org/2000/svg"
	 xmlns="http://www.w3.org/2000/svg" xmlns:xlink="http://www.w3.org/1999/xlink" x="0px" y="0px" viewBox="0 0 170 170"
	 style="enable-background:new 0 0 170 170;" xml:space="preserve">
<defs>
	
	
		<inkscape:perspective  id="perspective10" inkscape:persp3d-origin="372.04724 : 350.78739 : 1" inkscape:vp_x="0 : 526.18109 : 1" inkscape:vp_y="0 : 1000 : 0" inkscape:vp_z="744.09448 : 526.18109 : 1" sodipodi:type="inkscape:persp3d">
		</inkscape:perspective>
	
		<inkscape:perspective  id="perspective2824" inkscape:persp3d-origin="0.5 : 0.33333333 : 1" inkscape:vp_x="0 : 0.5 : 1" inkscape:vp_y="0 : 1000 : 0" inkscape:vp_z="1 : 0.5 : 1" sodipodi:type="inkscape:persp3d">
		</inkscape:perspective>
	
		<inkscape:perspective  id="perspective2840" inkscape:persp3d-origin="0.5 : 0.33333333 : 1" inkscape:vp_x="0 : 0.5 : 1" inkscape:vp_y="0 : 1000 : 0" inkscape:vp_z="1 : 0.5 : 1" sodipodi:type="inkscape:persp3d">
		</inkscape:perspective>
	
		<inkscape:perspective  id="perspective2878" inkscape:persp3d-origin="0.5 : 0.33333333 : 1" inkscape:vp_x="0 : 0.5 : 1" inkscape:vp_y="0 : 1000 : 0" inkscape:vp_z="1 : 0.5 : 1" sodipodi:type="inkscape:persp3d">
		</inkscape:perspective>
	
		<inkscape:perspective  id="perspective2894" inkscape:persp3d-origin="0.5 : 0.33333333 : 1" inkscape:vp_x="0 : 0.5 : 1" inkscape:vp_y="0 : 1000 : 0" inkscape:vp_z="1 : 0.5 : 1" sodipodi:type="inkscape:persp3d">
		</inkscape:perspective>
	
		<inkscape:perspective  id="perspective2910" inkscape:persp3d-origin="0.5 : 0.33333333 : 1" inkscape:vp_x="0 : 0.5 : 1" inkscape:vp_y="0 : 1000 : 0" inkscape:vp_z="1 : 0.5 : 1" sodipodi:type="inkscape:persp3d">
		</inkscape:perspective>
	
		<inkscape:perspective  id="perspective2926" inkscape:persp3d-origin="0.5 : 0.33333333 : 1" inkscape:vp_x="0 : 0.5 : 1" inkscape:vp_y="0 : 1000 : 0" inkscape:vp_z="1 : 0.5 : 1" sodipodi:type="inkscape:persp3d">
		</inkscape:perspective>
	
		<inkscape:perspective  id="perspective2976" inkscape:persp3d-origin="0.5 : 0.33333333 : 1" inkscape:vp_x="0 : 0.5 : 1" inkscape:vp_y="0 : 1000 : 0" inkscape:vp_z="1 : 0.5 : 1" sodipodi:type="inkscape:persp3d">
		</inkscape:perspective>
	
		<inkscape:perspective  id="perspective3020" inkscape:persp3d-origin="0.5 : 0.33333333 : 1" inkscape:vp_x="0 : 0.5 : 1" inkscape:vp_y="0 : 1000 : 0" inkscape:vp_z="1 : 0.5 : 1" sodipodi:type="inkscape:persp3d">
		</inkscape:perspective>
	
		<inkscape:perspective  id="perspective3036" inkscape:persp3d-origin="0.5 : 0.33333333 : 1" inkscape:vp_x="0 : 0.5 : 1" inkscape:vp_y="0 : 1000 : 0" inkscape:vp_z="1 : 0.5 : 1" sodipodi:type="inkscape:persp3d">
		</inkscape:perspective>
	
		<inkscape:perspective  id="perspective3052" inkscape:persp3d-origin="0.5 : 0.33333333 : 1" inkscape:vp_x="0 : 0.5 : 1" inkscape:vp_y="0 : 1000 : 0" inkscape:vp_z="1 : 0.5 : 1" sodipodi:type="inkscape:persp3d">
		</inkscape:perspective>
	
		<inkscape:perspective  id="perspective3866" inkscape:persp3d-origin="0.5 : 0.33333333 : 1" inkscape:vp_x="0 : 0.5 : 1" inkscape:vp_y="0 : 1000 : 0" inkscape:vp_z="1 : 0.5 : 1" sodipodi:type="inkscape:persp3d">
		</inkscape:perspective>
</defs>
<sodipodi:namedview  bordercolor="#666666" borderopacity="1.0" id="base" inkscape:current-layer="layer1" inkscape:cx="240.32415" inkscape:cy="-37.836532" inkscape:document-units="px" inkscape:pageopacity="0.0" inkscape:pageshadow="2" inkscape:window-height="998" inkscape:window-maximized="1" inkscape:window-width="1680" inkscape:window-x="-8" inkscape:window-y="-8" inkscape:zoom="0.98994949" pagecolor="#ffffff" showgrid="false">
	</sodipodi:namedview>
<g id="layer1" transform="translate(-27.820801,-24.714976)" inkscape:groupmode="layer" inkscape:label="Layer 1">
	<path id="path2900" d="M91.2,150c-4.4-3.4-9.1-6.8-12.3-11.5c-6.8-8.2-12-17.8-15.5-27.8c-2.2-6.5-2.9-13.5-5.7-19.7
		c-2.9-4.5,0.5-9.5,5.5-11c2.2-0.4,6.2-2.5,1.4-1c-4.2,3.1-4.6-2.8-0.3-3.2c3-0.4,4-2.8,3-5c-3.2-2.1,7.7-4.3,2.2-7.4
		c-5.7-6.1,8-7.3,4.6-0.3c-0.8,5.4,9.5-1,7.1,5.2c2.4,3,9.1,0.7,9,4.8c3.6,0.2,4.8,3.3,8.1,3.4c3.4,1.6,9.7,2.8,10.9,6.7
		c-3.4,2.7-11.4-5.6-11.8,1.9c1,11.1,0.8,22.5,4.8,33.1c1.9,6.4,6.6,11.5,10.8,16.4c4,4.9,9.5,8.3,15,11.2
		c4.9,2.3,10.1,3.8,15.5,4.8c2.2-1.6,6-7.8,9.3-5.2c0.2,2.9-6.7,6.1-0.3,5.7c3.7-1.1,6.3,2.9,9.4-0.7c2.8,3.4,11.8-2.1,9.7,4.7
		c-2.7,1.8-6.7,0.7-9.4,3.1c-4.5-2.2-8.1,2-13,1.4c-5.6,1-11.2,1.4-16.8,1.4c-9.2-0.7-18.6-1-27.3-4.2
		C100.4,155.6,95.5,152.7,91.2,150L91.2,150z M99,153.3c4.8,2.1,9.5,4.3,14.8,5c8.4,1.1,17,3,25.4,1.3c-3.8-1.7-7.7,0.7-11.5-1.2
		c-4.5,1-9.4-0.2-14-0.8c-5.3-2.4-10.9-3.9-15.8-7c-6.2-2.2,3.2,2.9,4.8,3.3c3.9,2.2-4.2-1.1-5.4-2.1c-3.2-1.8-3.6-1.4-0.3,0.4
		C97.6,152.6,98.3,153,99,153.3L99,153.3z M89.8,146.8c4.6,1.8,0-3.3-2.2-3c-1-1.6-3.6-2.7-1.8-3.6c-3.4,1.1-3.6-4.5-5.1-3.7
		c-3.6-1.1-1.4-5.1-5.7-7.6c-0.4-2.6-4.2-4.8-5.5-8.8c-0.5-2-4.3-7.7-2-2.4c2,5.1,5.5,9.5,8.4,14c2.3,4.2,5,8.6,9.1,11.2
		C86.5,144.4,87.9,146.4,89.8,146.8L89.8,146.8z M76.4,132.1C76.6,131.4,77.2,133.6,76.4,132.1z M95.4,148.9
		C96.4,148.5,93.9,148.3,95.4,148.9z M98,149.8C97.6,148.6,96.8,150.6,98,149.8z M101.1,151.2C102.6,149.7,98.8,150.3,101.1,151.2z
		 M106.5,154.2C107.4,152.8,103.6,153.6,106.5,154.2z M96.1,146.9C98.4,145.4,93.1,146.9,96.1,146.9z M98.5,148.1
		C98.4,147.3,97.6,148.5,98.5,148.1z M110.4,155.5c1.9,1.2,11.2,2.7,5.4,0.5C114.7,156.2,105,153.2,110.4,155.5z M91.5,140.8
		C91.3,140,88.5,139.9,91.5,140.8z M97,144C98.5,143,94,143.3,97,144z M101.7,146.9C103.7,146.1,98.3,146.1,101.7,146.9z
		 M89.3,138.4c2.2,1.7,9.1,0.2,3.4-1c-2.5-1.4-8.3-2.3-4.4,0.8L89.3,138.4L89.3,138.4z M104.8,147.9
		C105.8,146.3,100.9,146.9,104.8,147.9z M100.1,144.1c5.5,1.6-4.6-3.4-1.3-0.5l0.7,0.3L100.1,144.1L100.1,144.1z M109.6,149.6
		C114.8,149.7,104.9,148.9,109.6,149.6L109.6,149.6z M87.3,135.4C87.1,134.4,86,135.5,87.3,135.4z M118.4,154.6
		C118.5,152.8,116.7,155.8,118.4,154.6z M96.1,140.8C95.8,139.9,94.5,140.7,96.1,140.8z M87.7,134.8
		C90.7,134.6,83.7,133.4,87.7,134.8z M77.8,128.4C77.5,126.9,74.6,125.8,77.8,128.4z M103.9,144.9
		C103.3,144.2,103.6,145,103.9,144.9z M120,154.8C120,153.8,119.1,155.2,120,154.8z M102.4,143.4C102.7,142.2,99.9,143,102.4,143.4z
		 M90.3,135.7C92.6,135.5,86.8,134.3,90.3,135.7z M110.7,148.4C114.2,147.1,107.4,147.7,110.7,148.4z M100.1,141.2
		c4,0.5-4.7-2.7-0.8-0.3L100.1,141.2L100.1,141.2z M114,149.7c3.7-2.2,2.5,5.2,6.3,0.6c3.7-2.7-3.3,3.4,1.4,0.5
		c3.4-2.2,8.3,1.1,11.4,2.1c2.2-0.1,4.4,1.9,6.8,0.7c4.5-1.2-8.7-1.8-5.3-3.9c-4,1.2-7.1-1.4-9.1-4c-4.5-1-9.8-3.4-12.1-7.4
		c-0.9-1.5,1.3,0.2-0.8-2.2c-2.7-2.4-4.1-5.2-6-8.2c-2.2-1.1-2.5-4.6-2.7-0.1c0-2.8-2.7-4.8-3.3-4c0-2.7,2.8-1.4,0.8-3.4
		c-0.4-2.8-1.9-5.8-2.3-9c-0.7-1.6-0.1-4.9-2.3-1.4c-0.8,3.7-0.2-4.5,1-1.8c1.6-2.8-0.6-2.5-0.7-2.1c1-2.4,0.7-5.7-0.3-4.4
		c0.5-2.5,0.9-9.1-0.8-8c1-2.6,2-11.9-2.5-8.3c-1.9,0-5.1,0.7-6.6,1.4c4.7,2.6-0.5,1-2.4,0.5c-0.2,2.4-2.2,1.4-4.5,1.4
		c3.8,0.5-1.9,3.9-4,2.6c-2.8,1.3,2.5,4.8,0.1,5.8c0.3,1.6-4.3-0.5-4,3.1c-2.8-1.1-0.4,4.3,1,2.5c4.7,1.3,3.3,4.2,3.4,6.9
		c-0.8,1.6-3.7-3.7-0.7-3.5c-2.5-4-2.7-1.4-4.8,0.4c-0.5,0.1,5.2,2.7,1.6,3.9c3.1,0.5,3.2,3.2,3.9,5c1.9,1.9,1.5-2.2,3.7,0.2
		c-1.4-2.1-7.5-5.9-2.6-4.7c0-2.1-0.9-3.8,0.6-3.7c1.5-2.7-1.6,6.6,1.8,3.3c0.9-0.4,1.1-2.7,2.8,0.2c2.4,2.4,0.9,4.1-2.5,1.9
		c0.6,2.1,4.6,2.8,3.9,6.1c0.8,2.8,1.9,1.8,2.8,1.6c0.8,2.8,1.2,0.7,1.2-0.6c3.4,0.7,2.7,2.8,3.7,4.2c2.4,1.1-3.4-7.3,0.7-2.5
		c4.3,3.9,1.6,5.6-2.2,4.9c2.5-0.2,3.3,3.3,6.3,3.2c2.8,1.3,4.7,6.5-0.1,4.3c-1.7-1.5-7.6-3.4-2.8-0.5c4.5,2.1,8,3.3,12.3,5.9
		c3.1,2.2,4.4,4.7,5.6,5.2c-2.6,1.2-7.8-1-3.9-1.7c-2.4-0.4-5.1-1.7-2.8,1.3c2,1.6,6.9,1.4,7.8,1.6c-0.8,1.7-2.1,1.8,0.1,1.9
		C110.7,148.8,113.8,149,114,149.7L114,149.7z M109.2,136.2c-1.4-1.5-1.8-4.3-0.2-1.9C109.7,134.7,111.5,138.9,109.2,136.2
		L109.2,136.2z M124.8,146.1C125.7,146,124.8,146.8,124.8,146.1z M106.9,132.6C106.9,130.3,107.5,134.3,106.9,132.6z M105.4,130.5
		C103.6,127,107.7,131.5,105.4,130.5z M86.7,117.5C87.7,117.2,87.1,119.4,86.7,117.5z M101.6,125.6
		C102.2,123.2,102.4,127.7,101.6,125.6z M91,118.3C90.3,116.9,92.6,119.5,91,118.3z M100.1,121.2c-1.7-3.8,1.2-2.1,0.4,0.6
		L100.1,121.2L100.1,121.2z M84.5,110.8c-0.8-1.3-2-4.9-1.6-6c0.4,1.8,3.9,7.8,1.7,2.5c-2.4-4.5,2.8,1.4,3.4,2.6
		c0.2,1.1-1.4-0.3-0.3,2.3C85.5,109.2,86.4,113.7,84.5,110.8z M79.7,107.5C79.8,104.6,80.7,109.5,79.7,107.5z M81.8,108.2
		C82.9,106,83.6,111.3,81.8,108.2z M76.6,104.1c-1.8-1.8-3.1-3.4,0.1-1.1c1.2,0.1-2.7-3.7,0.3-1.2C80.1,102.5,78.6,107,76.6,104.1z
		 M79.4,104.1C80.4,103.1,79.9,105.1,79.4,104.1z M81,104.6C79.5,101.7,83,105.9,81,104.6z M77.7,101.4c-5.2-4.6,6.6,2.4,0.8,0.8
		L77.7,101.4L77.7,101.4z M92.6,110.1c-2.2-1.3-0.6-9.5,0.2-3.9c2.2-0.7-0.1,2.9,1.5,2.8C94.1,111.3,93.4,112.1,92.6,110.1z
		 M98.2,113.4C98.4,110.9,98.6,115.1,98.2,113.4z M97.2,112.5C97.5,111.4,97.2,113.7,97.2,112.5z M78.7,99.9
		c-3.4-4.6,9.7,4.7,2.2,1.1C80.1,100.9,79.1,100.8,78.7,99.9z M89.4,105.5C89,101.7,90,106.2,89.4,105.5L89.4,105.5z M97.5,110.7
		C98.1,108.5,97.5,112.2,97.5,110.7z M79.2,98.2c2-0.4,8.3,3.5,2.5,1.1C81.1,98.5,79.7,98.9,79.2,98.2z M96.3,106.7
		c0.2-4,1.2-2.4,0,0.5V106.7L96.3,106.7L96.3,106.7z M80.7,96.8c0.8-1.2-2.2-5.4,0.4-1.5c1.1,0.9,3.3,1.5,1.4,1.9
		C85.5,99.7,81.8,97.8,80.7,96.8z M95.5,105.4C96,100.9,96,108.1,95.5,105.4z M79,92.5C79.6,92.3,79.4,93.4,79,92.5z M82.9,94.8
		C83.8,92.8,84.7,97.2,82.9,94.8z M93.7,100.9C93.7,100.1,94,102.1,93.7,100.9z M93.1,99.5C91.6,95.8,94.5,101.5,93.1,99.5z
		 M92.2,97.1C91.9,95.5,93.1,99,92.2,97.1L92.2,97.1z M93.7,94.6c-1-1.8,1.3-8,1.6-4.2c-1.1,3-0.3,4.7,0.4,0.7
		C97.1,87.9,95.4,97.4,93.7,94.6L93.7,94.6z M95.2,85.4C95.7,84.8,95.4,86,95.2,85.4z M92.6,136.4C92,135.8,92.8,136.7,92.6,136.4z
		 M98,139.1c3,0.8,3-0.5,0.2-0.8c-1.4-1.3-6-2.8-1.9-0.2C96.6,138.8,97.5,138.8,98,139.1L98,139.1z M87.4,132.1
		c1.6,1.2,6.2,3.4,2.4,0.5c1.3-1.5-2.5-2.3-1.2-3.3c-3.2-1.9-2.5-1.8-0.3-1.7c-3.8-1.7,0.5-1.6,0.4-2.5c-1.4-0.3-7.3-2.6-3.9,0.2
		c-3.5-1.8-0.8,0.7-1.9,0.4c-3.6-1,3.2,2.7-0.5,1.8c2.1,1.6,5.5,4.2,0.8,1.7C82.6,130.1,86.5,131.4,87.4,132.1L87.4,132.1z
		 M93.1,135.3C99.8,137.5,89.7,132.6,93.1,135.3z M121.6,152.6C121.7,151.3,120.7,153.8,121.6,152.6z M124.5,153.8
		c1.6-1.5,0.1,2.4,2.6-0.4c0-2-0.1-3.2-2.9-0.7C123.4,153.2,123.1,155,124.5,153.8L124.5,153.8z M77.9,124.6
		C77.4,122.7,74.6,122.7,77.9,124.6z M81,126.7C79.9,124.7,76.9,124.9,81,126.7z M98.9,137.4c1.8,1.6,8,1.1,2.1,0.2
		C100.1,136.3,95.5,136.6,98.9,137.4z M123.4,152.6C126.1,150.3,120.8,153.5,123.4,152.6z M129,156.4
		C129,155.6,127.8,156.7,129,156.4z M129,155.3C131.9,152.2,126.1,155.5,129,155.3L129,155.3z M70.2,118.1c-2.5-3.6-1.6-5.3-4-8.2
		c-0.5-2.2-4.2-7.4-1.9-1.9C66.4,111.1,67,116.1,70.2,118.1z M128.1,154.4C133.5,150.8,125.8,152.8,128.1,154.4z M132.2,156
		C135,153.6,130.5,155.5,132.2,156z M77,120.6C77.8,119.4,74.9,120.4,77,120.6z M131.3,154.9c2.7-1.7-0.6-1.4-0.5,0.2L131.3,154.9
		L131.3,154.9z M95.4,132.2C95.4,131.1,94,132.3,95.4,132.2z M97.6,133.5C96.9,132.1,96.6,133.7,97.6,133.5z M135.6,156
		c3.4-2.5-2.1-0.5-0.7,0.5L135.6,156L135.6,156z M134.3,155.4C137.1,153.1,131.4,156.4,134.3,155.4z M140.9,159.8
		C142.8,158.6,138.7,159.4,140.9,159.8z M78.7,119.8c2.5,0.5,10,6.1,5.6,0.4c-2.2-0.7-0.9-6.2-3.2-5.2c1.6,2.6,1.3,3.7-2,2.1
		c-4-2-2.3,1-1.5,1.8C76.5,119.1,79,119.7,78.7,119.8L78.7,119.8z M67.3,110.8c0.4-1.8-4.1-10.1-2.2-4.2
		C66,107.9,65.8,110.3,67.3,110.8z M88.2,123.6C86.9,122.6,88.1,123.5,88.2,123.6z M91.3,124.4C91.3,122.4,87.8,123.6,91.3,124.4z
		 M118.7,141.6C118.1,140.2,116.6,141.6,118.7,141.6L118.7,141.6z M119.9,142.5C119.7,141.8,119.2,142.7,119.9,142.5z M130.8,149.4
		C131.8,148.6,129.5,149.2,130.8,149.4z M73,112.2C76,111.1,69.8,111.4,73,112.2z M116.2,139.5C116.2,137.5,114.3,139.9,116.2,139.5
		z M71.9,109.5C73.7,108.9,70.1,109.1,71.9,109.5z M77.4,112.2C77.4,111.6,76.8,112.4,77.4,112.2z M145.2,153.8
		c2.5-0.5,8.1,1.3,9-0.7c-3-0.1-10.3-2.1-10.7,0.5l0.7,0.1L145.2,153.8L145.2,153.8L145.2,153.8z M79.2,112.7
		C79.2,110.7,77.7,112.6,79.2,112.7z M64.6,102.5C63.9,98.8,62,102,64.6,102.5z M68.1,103.4C68.1,102.2,64.9,102.3,68.1,103.4z
		 M70.1,104.4C69.5,103.9,69.6,104.9,70.1,104.4z M82.6,112.4C83.2,111.9,81.2,112,82.6,112.4z M68.7,102.1
		C68.4,99.4,64.7,101.7,68.7,102.1z M61.5,97.5C61.5,96.2,60.9,98,61.5,97.5z M62.6,96.7C62.4,95.2,61.7,96.9,62.6,96.7z
		 M68.5,100.2c2.5-1-4.5-2-0.5-0.2L68.5,100.2z M147,148.8C148.7,147.3,145,148.3,147,148.8z M156.5,153.6
		C157.2,151.8,154.9,153.9,156.5,153.6z M69.1,97.1C69.4,95.3,67.2,97.5,69.1,97.1z M60.8,91.6c-0.4-2.6-0.4-7.1,3.9-5.6
		c-5.7,1.1,4,7.1,2.7,2.4c2.4,0.1,4.7-1.4,3.4,0.9c4.8-0.5,8-4.6,12.6-4c3.6-0.5,7.5-0.8,11.4-2.3c3.1-0.2,6.2-3.6,4.5-5.7
		c-4.3-0.4-8.8,0.2-13.6,1.1c-5.3,1.1-10.1,3.1-15.5,4c-5.2,0.7,1,1.9-0.4,2.2c-2.7,1,3.3,1.6-0.4,2.6c-2.2-0.4-4.5-1.2-3.6-3.5
		c-5,0.7-9.4,2.7-5.4,7.8H60.8L60.8,91.6L60.8,91.6z M72.8,85.4c1.1-4.3,6.3,3.6,1.9,0.5C74.2,85.6,73.3,85.3,72.8,85.4z M73,83.4
		C74.6,82.1,73.9,84,73,83.4z M75.1,83.4c0.2-2,4.9,1,0.8,0.7L75.1,83.4L75.1,83.4z M78,82.2C79.1,81,78.3,83.3,78,82.2z M78.8,81.7
		c1.8-2.2,10-1.4,4-0.2C81.2,80.3,79.9,82.2,78.8,81.7z M89.6,80.1C89.3,74.2,95,82.1,89.6,80.1z M92.7,80.1c1.1-3,4.3-1.2,0.5-0.6
		C93.3,79.8,93.1,81,92.7,80.1z M67.9,95.6C71.3,93.6,64.3,93.9,67.9,95.6L67.9,95.6z M70.4,96.4C71.6,95.1,67.8,95.8,70.4,96.4z
		 M63.1,91.2C65,89.7,60.8,90.6,63.1,91.2z M162.1,153.1C162.2,151.4,160.7,153.9,162.1,153.1z M152,146.2
		C152.3,144.3,150.8,146.4,152,146.2z M164.9,153.8c2.7,0,8.2-0.8,2.3-0.8C166.3,153.1,161.9,153,164.9,153.8L164.9,153.8z
		 M72.5,95.1c2.2-0.1,3.4-2.4-0.4-2.2c-5.9-0.6,5.2,2.1-0.8,1.3C70.6,94.7,72.5,95.3,72.5,95.1z M74.5,96.1
		C74.2,94.7,73.8,96.8,74.5,96.1z M76.8,90.1C77.7,88.9,75.4,89.7,76.8,90.1z M69.5,78c3.9-1.3,9.2-2.8,11,0.7
		c-1.9-2.2-0.7-4.5,1-1.1c2.5,3.3,3.7-1.5,2.1-2.6c1.9,2.3,3.9,3.4,1.2,0.1c3-3.6-5.9,0.5-7.9,0.4C76,75.8,67,77.7,69.5,78z
		 M71.8,73.7c2.2-1.7,7.6,1,4.2-1.6C75.6,71.7,68.3,74,71.8,73.7z M79.8,74c2.6,0.1-1.1-3.5,2-1.9c-0.5-1.6-3.6-1.9-5.1-2.6
		C75.9,71,78.4,74,79.8,74z M73.2,66.6C74.1,65.4,71.6,67.3,73.2,66.6z M76.5,67.4c4.2-0.5-1.1-1.8-0.8-0.1L76.5,67.4L76.5,67.4z
		 M70.4,62.7c-3-3.8,5.5,0.7,2.5-3.4C70.4,57.3,67.9,61.5,70.4,62.7z M108,82.9c1.3-2.4-5.6-3.2-0.9-0.8
		C107.5,82.2,107.4,83.1,108,82.9z"/>
</g>
</svg>
