<?xml version="1.0" encoding="utf-8"?>
<!-- Generator: Adobe Illustrator 22.0.0, SVG Export Plug-In . SVG Version: 6.00 Build 0)  -->
<svg version="1.1"
	 id="svg2" xmlns:cc="http://creativecommons.org/ns#" xmlns:dc="http://purl.org/dc/elements/1.1/" xmlns:rdf="http://www.w3.org/1999/02/22-rdf-syntax-ns#" xmlns:svg="http://www.w3.org/2000/svg"
	 xmlns="http://www.w3.org/2000/svg" xmlns:xlink="http://www.w3.org/1999/xlink" x="0px" y="0px" viewBox="0 0 170 170"
	 style="enable-background:new 0 0 170 170;" xml:space="preserve">
<style type="text/css">
	.st0{fill:#DE4F4F;}
</style>
<g id="g6" transform="matrix(0.62649123,0,0,0.62649123,-0.27477954,-0.27455194)">
	<path id="path8" class="st0" d="M64.2,63.9l121.6,128.9c0,0,4.2,2.9,7.3-0.5c3.2-3.4,0.7-6.8,0.7-6.8L64.2,63.9L64.2,63.9z"/>
	<path id="path10" class="st0" d="M102.7,76l92.6,99.9c0,0,4.2,2.9,7.3-0.5c3.2-3.4,0.7-6.8,0.7-6.8L102.7,76L102.7,76z"/>
	<path id="path12" class="st0" d="M75.7,102.1l92.6,99.9c0,0,4.2,2.9,7.3-0.5c3.2-3.4,0.7-6.8,0.7-6.8L75.7,102.1L75.7,102.1z"/>
	<path id="path14" class="st0" d="M135.3,86.5l64.8,69.8c0,0,2.9,2.1,5.1-0.4c2.2-2.4,0.5-4.7,0.5-4.7L135.3,86.5L135.3,86.5z"/>
	<path id="path16" class="st0" d="M84.6,132.3l64.8,69.8c0,0,2.9,2.1,5.1-0.4c2.2-2.4,0.5-4.7,0.5-4.7L84.6,132.3L84.6,132.3z"/>
	<path id="path18" class="st0" d="M168.6,101.6l29.3,31.7c0,0,1.4,1,2.5-0.1s0.2-2.2,0.2-2.2L168.6,101.6L168.6,101.6z"/>
	<path id="path20" class="st0" d="M100.8,164.5l29.3,31.7c0,0,1.4,1,2.5-0.1s0.2-2.2,0.2-2.2L100.8,164.5L100.8,164.5z"/>
</g>
</svg>
