<?xml version="1.0" encoding="utf-8"?>
<!-- Generator: Adobe Illustrator 22.0.0, SVG Export Plug-In . SVG Version: 6.00 Build 0)  -->
<svg version="1.1" id="Layer_1" xmlns="http://www.w3.org/2000/svg" xmlns:xlink="http://www.w3.org/1999/xlink" x="0px" y="0px"
	 viewBox="0 0 170 170" style="enable-background:new 0 0 170 170;" xml:space="preserve">
<style type="text/css">
	.st0{fill:#FFFFFF;}
</style>
<g id="fond">
</g>
<g id="compacte">
</g>
<g id="rectangle">
</g>
<g id="carré">
	<g>
		<g>
			<path d="M124.9,85.1c0,22.2-18,40.2-40.2,40.2s-40.2-18-40.2-40.2s17.9-40.2,40.2-40.2S124.9,62.9,124.9,85.1z"/>
			<path class="st0" d="M102.2,59.8c-4.1,0.1-7.7,2.4-10.3,5.5c-2.9,3.4-4.9,7.5-6.3,11.6c-2.5-2.1-4.4-4.7-8.5-5.9
				c-3.2-0.9-6.4-0.5-9.4,1.7c-1.4,1.1-2.4,2.7-2.9,4.2c-1.2,3.9,1.3,7.5,2.4,8.8l2.4,2.7c0.5,0.5,1.7,1.9,1.1,3.8
				c-0.6,2.1-3.2,3.5-5.8,2.7c-1.1-0.4-2.9-1.2-2.4-2.4c0.1-0.5,0.5-0.9,0.7-1.3c0.1-0.4,0.3-0.6,0.3-0.8c0.5-1.6-0.1-3.6-1.9-4.1
				c-1.6-0.5-3.2-0.1-3.8,1.9c-0.7,2.3,0.4,6.4,6.2,8.2c6.8,2.1,12.6-1.7,13.4-6.5c0.5-3-0.9-5.3-3.4-8.2l-2.1-2.3
				c-1.2-1.2-1.7-3.4-0.4-5c1.1-1.4,2.7-1.9,5.2-1.3c3.7,1,5.3,3.6,8.1,5.7c-1.1,3.7-1.9,7.5-2.5,10.8l-0.4,2.5
				c-1.9,10.3-3.4,15.9-7.4,19.2c-0.8,0.6-1.9,1.4-3.6,1.4c-0.9,0-1.1-0.6-1.2-0.9c0-0.6,0.5-0.9,0.9-1.2c0.5-0.3,1.3-0.8,1.2-2.3
				c-0.1-1.8-1.5-3.3-3.7-3.2c-1.6,0.1-4,1.6-3.9,4.3c0.1,2.9,2.7,5,6.7,4.9c2.2-0.1,6.9-0.9,11.6-6.5c5.5-6.4,7-13.8,8.2-19.2
				l1.3-7.1c0.7,0.1,1.5,0.1,2.3,0.1c6.8,0.1,10.3-3.4,10.3-6c0-1.6-1-3.1-2.5-3.1c-1.1,0-2.4,0.7-2.7,2.2c-0.3,1.4,2.2,2.7,0.2,4
				c-1.4,0.9-3.9,1.5-7.3,1l0.6-3.5c1.3-6.6,2.9-14.8,8.9-15c0.4,0,2.1,0,2.1,1.1c0,0.4-0.1,0.4-0.5,1.3c-0.4,0.6-0.6,1.1-0.6,1.8
				c0.1,1.7,1.4,2.8,3.2,2.7c2.5-0.1,3.2-2.5,3.2-3.7C109.4,61.5,106.3,59.7,102.2,59.8z"/>
		</g>
	</g>
</g>
</svg>
