<svg xmlns="http://www.w3.org/2000/svg" viewBox="0 0 136.08 30.24"><defs><style>.cls-1,.cls-3{fill:#fff;}.cls-2{fill:#ccc;}.cls-3{font-size:27.95px;font-family:DIN-RegularAlternate, DIN Alternate;}.cls-4{letter-spacing:-0.02em;}.cls-5{letter-spacing:-0.03em;}.cls-6{letter-spacing:-0.04em;}</style></defs><title>Asset 8</title><g id="Layer_2" data-name="Layer 2"><g id="Layer_1-2" data-name="Layer 1"><path class="cls-1" d="M1.75,4.27l8-3L9.47,6.56,2,7.74a.41.41,0,0,1-.47-.37L1.35,4.9A.63.63,0,0,1,1.75,4.27Z"/><path class="cls-2" d="M21.59,8V6.51A.57.57,0,0,0,21.23,6L9.75,1.29,9.47,6.56l11.7,1.82A.36.36,0,0,0,21.59,8Z"/><path class="cls-1" d="M0,12.4v1.67a.52.52,0,0,0,.43.51l14.63,2.31-.32-7.16-14.19,2A.63.63,0,0,0,0,12.4Z"/><path class="cls-2" d="M14.74,9.73l.32,7.16,9.37-1.49a.5.5,0,0,0,.42-.49V12a.71.71,0,0,0-.59-.71Z"/><path class="cls-1" d="M2,19.24v3a1,1,0,0,0,.52.89l7.62,4.25,0-7L2.45,18.83A.42.42,0,0,0,2,19.24Z"/><path class="cls-2" d="M10.07,20.34l0,7L21.5,21.19a1,1,0,0,0,.54-.9v-1.8a.5.5,0,0,0-.59-.49Z"/><text class="cls-3" transform="translate(30.74 23.92)"><tspan class="cls-4">h</tspan><tspan class="cls-5" x="15.15" y="0">a</tspan><tspan class="cls-4" x="29.12" y="0">ys</tspan><tspan x="54.36" y="0">t</tspan><tspan class="cls-6" x="63.64" y="0">a</tspan><tspan class="cls-4" x="77.22" y="0">c</tspan><tspan x="90.36" y="0">k</tspan></text></g></g></svg>