<svg xmlns="http://www.w3.org/2000/svg" viewBox="0 0 180 40"><defs><style>.cls-1{font-size:35.29px;font-family:DINAlternate-Bold, DIN Alternate;font-weight:700;}.cls-1,.cls-6{fill:#fff;}.cls-2{letter-spacing:-0.02em;}.cls-3{letter-spacing:-0.03em;}.cls-4{letter-spacing:-0.02em;}.cls-5{letter-spacing:-0.04em;}</style></defs><title>haystack-logo--bold-180x41</title><g id="Layer_2" data-name="Layer 2"><g id="Layer_1-2" data-name="Layer 1"><text class="cls-1" transform="translate(53.8 30.31)"><tspan class="cls-2">h</tspan><tspan class="cls-3" x="18.25" y="0">a</tspan><tspan class="cls-4" x="34.98" y="0">ys</tspan><tspan x="66.17" y="0">t</tspan><tspan class="cls-5" x="75.98" y="0">a</tspan><tspan x="92.22" y="0">ck</tspan></text><path class="cls-6" d="M2.82,4.81,15.7,0l-.46,7.84-12,2.55a.65.65,0,0,1-.76-.59l-.31-4A1,1,0,0,1,2.82,4.81Z"/><path class="cls-6" d="M36.57,10.85V8.41A.94.94,0,0,0,36,7.55L17.52,0l-.45,7.84,18.82,3.59A.59.59,0,0,0,36.57,10.85Z"/><path class="cls-6" d="M0,18.53v1.4a.83.83,0,0,0,.7.82l23.54,3.08-.51-9L.88,17.51A1,1,0,0,0,0,18.53Z"/><path class="cls-6" d="M25.55,14.87l.51,9,15.09-1.76a.79.79,0,0,0,.67-.78l0-3.49a1.15,1.15,0,0,0-1-1.13Z"/><path class="cls-6" d="M3.14,28.89v3.49A1.64,1.64,0,0,0,4,33.81L16.24,40l0-9.33L3.94,28.23A.68.68,0,0,0,3.14,28.89Z"/><path class="cls-6" d="M18,30.67l0,9.33,18.36-9.24a1.65,1.65,0,0,0,.87-1.46V27.68a.79.79,0,0,0-.95-.77Z"/></g></g></svg>